<svg xmlns="http://www.w3.org/2000/svg"  viewBox="0 0 64 64" width="64px" height="64px"><path fill="#ace3ff" d="M39.5,24.461c0,1.734-0.594,3.326-1.582,4.596h0.128v0.104L49.925,15.17	c-2.301-4.662-6.356-8.289-11.313-10.028L26.764,19.097c1.352-1.32,3.198-2.136,5.236-2.136C36.142,16.961,39.5,20.319,39.5,24.461z"/><path fill="#ffeb9b" d="M37.022,30.08v-0.061c-1.33,1.203-3.088,1.941-5.022,1.941c-4.142,0-7.5-3.358-7.5-7.5	c0-1.603,0.507-3.086,1.364-4.305L14.456,33.593c1.698,3.027,5.536,7.604,9.055,12.687L37.265,30.08H37.022z"/><path fill="#8d6c9f" d="M7,57c-0.553,0-1-0.447-1-1v-2c0-0.553,0.447-1,1-1s1,0.447,1,1v2C8,56.553,7.553,57,7,57z"/><path fill="#8d6c9f" d="M12,57c-0.553,0-1-0.447-1-1v-2c0-0.553,0.447-1,1-1s1,0.447,1,1v2C13,56.553,12.553,57,12,57z"/><path fill="#8d6c9f" d="M17,57c-0.553,0-1-0.447-1-1v-2c0-0.553,0.447-1,1-1s1,0.447,1,1v2C18,56.553,17.553,57,17,57z"/><path fill="#8d6c9f" d="M22.009,57c-0.553,0-1-0.447-1-1v-2c0-0.553,0.447-1,1-1s1,0.447,1,1v2 C23.009,56.553,22.562,57,22.009,57z"/><path fill="#5dbc9d" d="M23.511,46.279c0.741,1.07,1.469,2.161,2.158,3.265C28.895,54.719,29.449,61,32,61	c2.324,0,3.695-6.726,6.8-11.853c3.885-6.415,8.567-11.787,10.493-15.093C51.014,31.1,52,27.665,52,24	c0-3.174-0.759-6.164-2.075-8.83L23.511,46.279z"/><path fill="#7bbeeb" d="M26.764,19.097L38.612,5.142C36.539,4.415,34.321,4,32,4c-6.107,0-11.566,2.745-15.235,7.06	l9.76,8.287C26.604,19.262,26.681,19.177,26.764,19.097z"/><path fill="#ed7899" d="M26.525,19.346l-9.76-8.287C13.799,14.549,12,19.061,12,24c0,3.295,0.797,6.405,2.209,9.145	c0.074,0.143,0.162,0.297,0.247,0.447l11.409-13.437C26.065,19.87,26.287,19.601,26.525,19.346z"/><path fill="#8d6c9f" d="M32,62c-2.186,0-3.118-2.48-4.299-5.621c-0.747-1.988-1.595-4.243-2.881-6.305 c-2.031-3.259-4.409-6.427-6.507-9.223c-2.157-2.876-4.021-5.358-4.993-7.248C11.802,30.657,11,27.336,11,24 c0-11.579,9.421-21,21-21s21,9.421,21,21c0,3.714-0.983,7.364-2.843,10.557c-0.87,1.493-2.259,3.361-3.868,5.524 c-2.096,2.818-4.471,6.012-6.634,9.583c-1.168,1.929-2.101,4.134-2.924,6.079C35.194,59.375,34.084,62,32,62z M32,5 c-10.477,0-19,8.523-19,19c0,3.063,0.706,5.985,2.098,8.688c0.896,1.739,2.713,4.16,4.815,6.964 c2.122,2.827,4.527,6.033,6.604,9.364c1.391,2.23,2.275,4.584,3.056,6.659C30.373,57.802,31.199,60,32,60 c0.759,0,1.99-2.911,2.89-5.036c0.85-2.008,1.813-4.283,3.055-6.335c2.212-3.653,4.723-7.029,6.74-9.741 c1.573-2.115,2.932-3.941,3.744-5.337C50.111,30.663,51,27.36,51,24C51,13.523,42.477,5,32,5z"/><path fill="#8d6c9f" d="M23.86,46.706c-0.229,0-0.458-0.078-0.646-0.237c-0.421-0.358-0.473-0.989-0.115-1.41l25.819-30.404 c0.358-0.421,0.989-0.471,1.41-0.115c0.421,0.358,0.473,0.989,0.115,1.41L24.624,46.354C24.426,46.586,24.145,46.706,23.86,46.706z"/><path fill="#8d6c9f" d="M14.5,34.503c-0.229,0-0.459-0.078-0.647-0.237c-0.421-0.358-0.473-0.989-0.115-1.41l23.96-28.215 c0.359-0.421,0.989-0.471,1.41-0.115c0.421,0.358,0.473,0.989,0.115,1.41L15.263,34.15C15.064,34.383,14.783,34.503,14.5,34.503z"/><path fill="#8d6c9f" d="M26.154,20.535c-0.229,0-0.459-0.078-0.647-0.237l-9.531-8.094c-0.421-0.358-0.473-0.989-0.115-1.41 c0.358-0.42,0.989-0.471,1.41-0.115l9.531,8.094c0.421,0.358,0.473,0.989,0.115,1.41C26.719,20.415,26.438,20.535,26.154,20.535z"/><g><path fill="#8d6c9f" d="M42,57c-0.553,0-1-0.447-1-1v-2c0-0.553,0.447-1,1-1s1,0.447,1,1v2C43,56.553,42.553,57,42,57z"/><path fill="#8d6c9f" d="M47,57c-0.553,0-1-0.447-1-1v-2c0-0.553,0.447-1,1-1s1,0.447,1,1v2C48,56.553,47.553,57,47,57z"/><path fill="#8d6c9f" d="M52,57c-0.553,0-1-0.447-1-1v-2c0-0.553,0.447-1,1-1s1,0.447,1,1v2C53,56.553,52.553,57,52,57z"/><path fill="#8d6c9f" d="M57.009,57c-0.553,0-1-0.447-1-1v-2c0-0.553,0.447-1,1-1s1,0.447,1,1v2 C58.009,56.553,57.562,57,57.009,57z"/></g><circle cx="32.017" cy="24.5" r="2.5" fill="#8d6c9f"/><g><path fill="#8d6c9f" d="M32,33c-4.687,0-8.5-3.813-8.5-8.5S27.313,16,32,16s8.5,3.813,8.5,8.5S36.687,33,32,33z M32,18 c-3.584,0-6.5,2.916-6.5,6.5S28.416,31,32,31s6.5-2.916,6.5-6.5S35.584,18,32,18z"/></g></svg>